<svg width="49" height="54" viewBox="0 0 49 54" fill="none" xmlns="http://www.w3.org/2000/svg">
<path d="M1.5 4V50C1.5 51.3807 2.61929 52.5 4 52.5H15.1831C16.5638 52.5 17.6831 51.3807 17.6831 50V37.7463L19.6267 35.7307L30.1914 51.3977C30.6561 52.0869 31.433 52.5 32.2642 52.5H44.949C46.9746 52.5 48.1593 50.2171 46.9931 48.5607L30.0965 24.5627L45.5015 5.5751C46.8273 3.94101 45.6644 1.5 43.5601 1.5H31.2665C30.5071 1.5 29.7888 1.84522 29.3144 2.43826L17.6831 16.9773V4C17.6831 2.61929 16.5638 1.5 15.1831 1.5H4C2.61929 1.5 1.5 2.61929 1.5 4Z" fill="white" stroke="black" stroke-width="3"/>
</svg>
