<svg width="147" height="30" viewBox="0 0 147 30" fill="none" xmlns="http://www.w3.org/2000/svg">
<path d="M0 29.2V0.799999H7.8V11.6L16.44 0.799999H25.24L14.92 13.52L25.96 29.2H17L9.96 18.76L7.8 21V29.2H0Z" fill="#454A59"/>
<path d="M25.6247 22.84C25.6247 21.4267 26.0114 20.1867 26.7847 19.12C27.558 18.0267 28.6247 17.1733 29.9847 16.56C31.3714 15.9467 32.9447 15.64 34.7047 15.64C35.5314 15.64 36.3047 15.7067 37.0247 15.84C37.7714 15.9733 38.4114 16.1733 38.9447 16.44V15.8C38.9447 14.8133 38.6514 14.08 38.0647 13.6C37.5047 13.12 36.5847 12.88 35.3047 12.88C34.1314 12.88 33.0247 13.08 31.9847 13.48C30.9714 13.8533 29.9047 14.4133 28.7847 15.16L26.5847 10.44C27.998 9.53333 29.478 8.86667 31.0247 8.44C32.598 7.98667 34.278 7.76 36.0647 7.76C39.398 7.76 41.9714 8.52 43.7847 10.04C45.6247 11.5333 46.5447 13.76 46.5447 16.72V20.8C46.5447 21.52 46.6514 22.0267 46.8647 22.32C47.078 22.5867 47.4514 22.7467 47.9847 22.8V29.2C47.3714 29.3333 46.7847 29.4267 46.2247 29.48C45.6914 29.56 45.2114 29.6 44.7847 29.6C43.4247 29.6 42.3847 29.36 41.6647 28.88C40.9714 28.3733 40.518 27.64 40.3047 26.68L40.1447 25.92C39.2114 27.12 38.1314 28.04 36.9047 28.68C35.678 29.2933 34.3714 29.6 32.9847 29.6C31.598 29.6 30.3447 29.3067 29.2247 28.72C28.1047 28.1333 27.2247 27.3333 26.5847 26.32C25.9447 25.28 25.6247 24.12 25.6247 22.84ZM37.9447 23.36C38.238 23.1467 38.478 22.92 38.6647 22.68C38.8514 22.4133 38.9447 22.1467 38.9447 21.88V20.32C38.518 20.16 38.0247 20.0267 37.4647 19.92C36.9314 19.8133 36.4514 19.76 36.0247 19.76C35.118 19.76 34.3447 19.9867 33.7047 20.44C33.0914 20.8933 32.7847 21.4667 32.7847 22.16C32.7847 22.5333 32.8914 22.88 33.1047 23.2C33.318 23.4933 33.6114 23.7333 33.9847 23.92C34.358 24.08 34.7847 24.16 35.2647 24.16C35.718 24.16 36.1847 24.0933 36.6647 23.96C37.1714 23.8 37.598 23.6 37.9447 23.36Z" fill="#454A59"/>
<path d="M64.13 29.6C62.5567 29.6 61.1967 29.2933 60.05 28.68C58.9033 28.04 57.9967 27.12 57.33 25.92V29.2H50.73V0H58.33V11.28C58.9433 10.1333 59.81 9.26667 60.93 8.68C62.05 8.06667 63.37 7.76 64.89 7.76C66.17 7.76 67.3567 8.04 68.45 8.6C69.5433 9.13333 70.49 9.89333 71.29 10.88C72.1167 11.8667 72.7567 13.04 73.21 14.4C73.6633 15.7333 73.89 17.1867 73.89 18.76C73.89 20.3067 73.6367 21.7467 73.13 23.08C72.65 24.3867 71.97 25.5333 71.09 26.52C70.2367 27.5067 69.21 28.2667 68.01 28.8C66.8367 29.3333 65.5433 29.6 64.13 29.6ZM61.93 23.2C62.5433 23.2 63.1033 23.0933 63.61 22.88C64.1167 22.6667 64.5567 22.3733 64.93 22C65.3033 21.6 65.5833 21.1333 65.77 20.6C65.9833 20.0667 66.09 19.4667 66.09 18.8C66.09 17.9467 65.9167 17.1733 65.57 16.48C65.25 15.76 64.7967 15.2 64.21 14.8C63.65 14.3733 62.9967 14.16 62.25 14.16C61.7167 14.16 61.1967 14.2933 60.69 14.56C60.1833 14.8267 59.7167 15.2 59.29 15.68C58.89 16.1333 58.57 16.6667 58.33 17.28V21.04C58.57 21.3867 58.8233 21.7067 59.09 22C59.3833 22.2667 59.6767 22.4933 59.97 22.68C60.2633 22.84 60.57 22.9733 60.89 23.08C61.2367 23.16 61.5833 23.2 61.93 23.2Z" fill="#454A59"/>
<path d="M75.4684 22.84C75.4684 21.4267 75.8551 20.1867 76.6284 19.12C77.4018 18.0267 78.4684 17.1733 79.8284 16.56C81.2151 15.9467 82.7884 15.64 84.5484 15.64C85.3751 15.64 86.1484 15.7067 86.8684 15.84C87.6151 15.9733 88.2551 16.1733 88.7884 16.44V15.8C88.7884 14.8133 88.4951 14.08 87.9084 13.6C87.3484 13.12 86.4284 12.88 85.1484 12.88C83.9751 12.88 82.8684 13.08 81.8284 13.48C80.8151 13.8533 79.7484 14.4133 78.6284 15.16L76.4284 10.44C77.8418 9.53333 79.3218 8.86667 80.8684 8.44C82.4418 7.98667 84.1218 7.76 85.9084 7.76C89.2418 7.76 91.8151 8.52 93.6284 10.04C95.4684 11.5333 96.3884 13.76 96.3884 16.72V20.8C96.3884 21.52 96.4951 22.0267 96.7084 22.32C96.9218 22.5867 97.2951 22.7467 97.8284 22.8V29.2C97.2151 29.3333 96.6284 29.4267 96.0684 29.48C95.5351 29.56 95.0551 29.6 94.6284 29.6C93.2684 29.6 92.2284 29.36 91.5084 28.88C90.8151 28.3733 90.3618 27.64 90.1484 26.68L89.9884 25.92C89.0551 27.12 87.9751 28.04 86.7484 28.68C85.5218 29.2933 84.2151 29.6 82.8284 29.6C81.4418 29.6 80.1884 29.3067 79.0684 28.72C77.9484 28.1333 77.0684 27.3333 76.4284 26.32C75.7884 25.28 75.4684 24.12 75.4684 22.84ZM87.7884 23.36C88.0818 23.1467 88.3218 22.92 88.5084 22.68C88.6951 22.4133 88.7884 22.1467 88.7884 21.88V20.32C88.3618 20.16 87.8684 20.0267 87.3084 19.92C86.7751 19.8133 86.2951 19.76 85.8684 19.76C84.9618 19.76 84.1884 19.9867 83.5484 20.44C82.9351 20.8933 82.6284 21.4667 82.6284 22.16C82.6284 22.5333 82.7351 22.88 82.9484 23.2C83.1618 23.4933 83.4551 23.7333 83.8284 23.92C84.2018 24.08 84.6284 24.16 85.1084 24.16C85.5618 24.16 86.0284 24.0933 86.5084 23.96C87.0151 23.8 87.4418 23.6 87.7884 23.36Z" fill="#454A59"/>
<path d="M121.734 29.2H114.134V17.36C114.134 16.32 113.894 15.5733 113.414 15.12C112.96 14.64 112.427 14.4 111.814 14.4C111.387 14.4 110.934 14.5333 110.454 14.8C109.974 15.04 109.534 15.3867 109.134 15.84C108.734 16.2933 108.414 16.8133 108.174 17.4V29.2H100.574V8.16H107.414V11.28C107.92 10.5067 108.56 9.86667 109.334 9.36C110.107 8.82667 111 8.42667 112.014 8.16C113.027 7.89333 114.134 7.76 115.334 7.76C116.774 7.76 117.92 8.01333 118.774 8.52C119.627 9.02667 120.267 9.68 120.694 10.48C121.12 11.28 121.4 12.12 121.534 13C121.667 13.8533 121.734 14.64 121.734 15.36V29.2Z" fill="#454A59"/>
<path d="M135.818 29.6C133.951 29.6 132.297 29.3067 130.857 28.72C129.444 28.1333 128.244 27.3333 127.257 26.32C126.271 25.28 125.524 24.1067 125.018 22.8C124.511 21.4933 124.257 20.12 124.257 18.68C124.257 16.76 124.697 14.9733 125.577 13.32C126.484 11.64 127.791 10.2933 129.497 9.28C131.231 8.26667 133.338 7.76 135.818 7.76C138.351 7.76 140.484 8.29333 142.217 9.36C143.951 10.4267 145.244 11.8 146.098 13.48L138.697 15.72C138.351 15.2133 137.924 14.8267 137.417 14.56C136.937 14.2933 136.391 14.16 135.777 14.16C135.084 14.16 134.458 14.3467 133.898 14.72C133.338 15.0667 132.884 15.5733 132.538 16.24C132.218 16.9067 132.057 17.72 132.057 18.68C132.057 19.6133 132.218 20.4267 132.538 21.12C132.884 21.7867 133.338 22.3067 133.898 22.68C134.458 23.0267 135.084 23.2 135.777 23.2C136.204 23.2 136.591 23.1467 136.938 23.04C137.284 22.9067 137.604 22.72 137.898 22.48C138.218 22.24 138.484 21.96 138.697 21.64L146.098 23.88C145.538 25 144.764 25.9867 143.777 26.84C142.817 27.6933 141.671 28.3733 140.337 28.88C139.031 29.36 137.524 29.6 135.818 29.6Z" fill="#454A59"/>
</svg>
